#N canvas 92 86 963 676 10;
#X obj 7 629 udpsend;
#X obj 835 340 packOSC;
#X msg 11 22 connect localhost 9999;
#X obj 25 285 bng 15 250 50 0 empty empty empty 17 7 0 10 -262144 -1
-1;
#X msg 25 306 1;
#X msg 25 327 send /p1tgr \$1;
#X obj 126 285 bng 15 250 50 0 empty empty empty 17 7 0 10 -262144
-1 -1;
#X msg 126 306 1;
#X obj 229 285 bng 15 250 50 0 empty empty empty 17 7 0 10 -262144
-1 -1;
#X msg 229 306 1;
#X obj 330 284 bng 15 250 50 0 empty empty empty 17 7 0 10 -262144
-1 -1;
#X msg 330 305 1;
#X obj 428 283 bng 15 250 50 0 empty empty empty 17 7 0 10 -262144
-1 -1;
#X msg 428 304 1;
#X obj 526 282 bng 15 250 50 0 empty empty empty 17 7 0 10 -262144
-1 -1;
#X msg 526 303 1;
#X obj 626 281 bng 15 250 50 0 empty empty empty 17 7 0 10 -262144
-1 -1;
#X msg 626 302 1;
#X obj 725 280 bng 15 250 50 0 empty empty empty 17 7 0 10 -262144
-1 -1;
#X msg 725 301 1;
#X text 28 351 CAIXA BUMBO HIHAT PRATO RIDE TOM1 TOM2 SURDO, f 131
;
#X msg 126 327 send /p2tgr \$1;
#X msg 229 327 send /p3tgr \$1;
#X msg 330 326 send /p4tgr \$1;
#X msg 428 325 send /p5tgr \$1;
#X msg 526 324 send /p6tgr \$1;
#X msg 626 323 send /p7tgr \$1;
#X msg 725 322 send /p8tgr \$1;
#X obj 210 51 bng 40 250 50 0 empty empty empty 17 7 0 10 -262144 -1
-1;
#X text 208 20 todos;
#X obj 302 47 bng 40 250 50 0 empty empty empty 17 7 0 10 -262144 -1
-1;
#X text 281 18 caixa + hihat;
#X obj 427 45 bng 40 250 50 0 empty empty empty 17 7 0 10 -262144 -1
-1;
#X text 410 16 bumbo + hihat;
#X connect 1 0 0 0;
#X connect 2 0 0 0;
#X connect 3 0 4 0;
#X connect 4 0 5 0;
#X connect 5 0 1 0;
#X connect 6 0 7 0;
#X connect 7 0 21 0;
#X connect 8 0 9 0;
#X connect 9 0 22 0;
#X connect 10 0 11 0;
#X connect 11 0 23 0;
#X connect 12 0 13 0;
#X connect 13 0 24 0;
#X connect 14 0 15 0;
#X connect 15 0 25 0;
#X connect 16 0 17 0;
#X connect 17 0 26 0;
#X connect 18 0 19 0;
#X connect 19 0 27 0;
#X connect 21 0 1 0;
#X connect 22 0 1 0;
#X connect 23 0 1 0;
#X connect 24 0 1 0;
#X connect 25 0 1 0;
#X connect 26 0 1 0;
#X connect 27 0 1 0;
#X connect 28 0 4 0;
#X connect 28 0 7 0;
#X connect 28 0 9 0;
#X connect 28 0 11 0;
#X connect 28 0 13 0;
#X connect 28 0 15 0;
#X connect 28 0 17 0;
#X connect 28 0 19 0;
#X connect 30 0 4 0;
#X connect 30 0 9 0;
#X connect 32 0 7 0;
#X connect 32 0 9 0;
