#N canvas -7 0 1750 965 10;
#X obj 53 37 r fromGUI;
#X obj 53 56 list trim;
#X obj 53 75 route /pad1vol /pad1sen /pad1but /pad2vol /pad2sen /pad2but
/pad3vol /pad3sen /pad3but /pad4vol /pad4sen /pad4but /pad5vol /pad5sen
/pad5but /pad6vol /pad6sen /pad6but /pad7vol /pad7sen /pad7but /pad8vol
/pad8sen /pad8but, f 48;
#X obj 511 31 r p1vol;
#X floatatom 574 45 5 0 0 0 - - -;
#X floatatom 574 77 5 0 0 0 - - -;
#X floatatom 574 110 5 0 0 0 - - -;
#X obj 511 62 r p1sen;
#X obj 512 96 r p1but;
#X floatatom 683 45 5 0 0 0 - - -;
#X floatatom 683 77 5 0 0 0 - - -;
#X floatatom 683 110 5 0 0 0 - - -;
#X floatatom 796 45 5 0 0 0 - - -;
#X floatatom 796 77 5 0 0 0 - - -;
#X floatatom 796 110 5 0 0 0 - - -;
#X floatatom 903 46 5 0 0 0 - - -;
#X floatatom 903 78 5 0 0 0 - - -;
#X floatatom 903 111 5 0 0 0 - - -;
#X obj 620 31 r p2vol;
#X obj 620 62 r p2sen;
#X obj 621 96 r p2but;
#X obj 733 31 r p3vol;
#X obj 733 62 r p3sen;
#X obj 734 96 r p3but;
#X obj 840 32 r p4vol;
#X obj 840 63 r p4sen;
#X obj 841 97 r p4but;
#X floatatom 574 162 5 0 0 0 - - -;
#X floatatom 574 194 5 0 0 0 - - -;
#X floatatom 574 227 5 0 0 0 - - -;
#X floatatom 683 163 5 0 0 0 - - -;
#X floatatom 683 195 5 0 0 0 - - -;
#X floatatom 683 228 5 0 0 0 - - -;
#X floatatom 796 163 5 0 0 0 - - -;
#X floatatom 796 195 5 0 0 0 - - -;
#X floatatom 796 228 5 0 0 0 - - -;
#X floatatom 904 163 5 0 0 0 - - -;
#X floatatom 904 195 5 0 0 0 - - -;
#X floatatom 904 228 5 0 0 0 - - -;
#X obj 511 148 r p5vol;
#X obj 511 179 r p5sen;
#X obj 512 213 r p5but;
#X obj 620 149 r p6vol;
#X obj 620 180 r p6sen;
#X obj 621 214 r p6but;
#X obj 733 149 r p7vol;
#X obj 733 180 r p7sen;
#X obj 734 214 r p7but;
#X obj 841 149 r p8vol;
#X obj 841 180 r p8sen;
#X obj 842 214 r p8but;
#X obj 10 148 s p1vol;
#X obj 10 168 s p1sen;
#X obj 11 188 s p1but;
#X obj 60 147 s p2vol;
#X obj 60 168 s p2sen;
#X obj 60 188 s p2but;
#X obj 109 148 s p3vol;
#X obj 109 168 s p3sen;
#X obj 109 188 s p3but;
#X obj 158 148 s p4vol;
#X obj 158 168 s p4sen;
#X obj 158 188 s p4but;
#X obj 206 148 s p5vol;
#X obj 206 168 s p5sen;
#X obj 207 188 s p5but;
#X obj 255 147 s p6vol;
#X obj 255 167 s p6sen;
#X obj 255 187 s p6but;
#X obj 304 147 s p7vol;
#X obj 304 167 s p7sen;
#X obj 304 187 s p7but;
#X obj 353 147 s p8vol;
#X obj 353 167 s p8sen;
#X obj 354 187 s p8but;
#X text 498 1 ================================= MONITOR ==================================
, f 76;
#X text 495 256 ============================================================================
, f 77;
#X obj 12 282 r p1but;
#X obj 12 303 == 1;
#X obj 12 324 spigot;
#X obj 12 366 i;
#X obj 42 366 + 1;
#X floatatom 12 387 5 0 0 0 - - -;
#X obj 12 407 % 2;
#X floatatom 12 428 5 0 0 0 - - -;
#X obj 12 345 bng 15 250 50 0 empty empty empty 17 7 0 10 -262144 -1
-1;
#X obj 12 448 s p1on;
#X obj 71 303 == 1;
#X obj 71 324 spigot;
#X obj 71 366 i;
#X obj 101 366 + 1;
#X floatatom 71 387 5 0 0 0 - - -;
#X obj 71 407 % 2;
#X floatatom 71 428 5 0 0 0 - - -;
#X obj 71 345 bng 15 250 50 0 empty empty empty 17 7 0 10 -262144 -1
-1;
#X obj 129 303 == 1;
#X obj 129 324 spigot;
#X obj 129 366 i;
#X obj 159 366 + 1;
#X floatatom 129 387 5 0 0 0 - - -;
#X obj 129 407 % 2;
#X floatatom 129 428 5 0 0 0 - - -;
#X obj 129 345 bng 15 250 50 0 empty empty empty 17 7 0 10 -262144
-1 -1;
#X obj 188 303 == 1;
#X obj 188 324 spigot;
#X obj 188 366 i;
#X obj 218 366 + 1;
#X floatatom 188 387 5 0 0 0 - - -;
#X obj 188 407 % 2;
#X floatatom 188 428 5 0 0 0 - - -;
#X obj 188 345 bng 15 250 50 0 empty empty empty 17 7 0 10 -262144
-1 -1;
#X obj 246 303 == 1;
#X obj 246 324 spigot;
#X obj 246 366 i;
#X obj 276 366 + 1;
#X floatatom 246 387 5 0 0 0 - - -;
#X obj 246 407 % 2;
#X floatatom 246 428 5 0 0 0 - - -;
#X obj 246 345 bng 15 250 50 0 empty empty empty 17 7 0 10 -262144
-1 -1;
#X obj 305 303 == 1;
#X obj 305 324 spigot;
#X obj 305 366 i;
#X obj 335 366 + 1;
#X floatatom 305 387 5 0 0 0 - - -;
#X obj 305 407 % 2;
#X floatatom 305 428 5 0 0 0 - - -;
#X obj 305 345 bng 15 250 50 0 empty empty empty 17 7 0 10 -262144
-1 -1;
#X obj 363 303 == 1;
#X obj 363 324 spigot;
#X obj 363 366 i;
#X obj 393 366 + 1;
#X floatatom 363 387 5 0 0 0 - - -;
#X obj 363 407 % 2;
#X floatatom 363 428 5 0 0 0 - - -;
#X obj 363 345 bng 15 250 50 0 empty empty empty 17 7 0 10 -262144
-1 -1;
#X obj 422 303 == 1;
#X obj 422 324 spigot;
#X obj 422 366 i;
#X obj 452 366 + 1;
#X floatatom 422 387 5 0 0 0 - - -;
#X obj 422 407 % 2;
#X floatatom 422 428 5 0 0 0 - - -;
#X obj 422 345 bng 15 250 50 0 empty empty empty 17 7 0 10 -262144
-1 -1;
#X obj 71 282 r p2but;
#X obj 129 282 r p3but;
#X obj 246 282 r p5but;
#X obj 188 282 r p4but;
#X obj 305 282 r p6but;
#X obj 363 282 r p7but;
#X obj 422 282 r p8but;
#X obj 71 448 s p2on;
#X obj 129 448 s p3on;
#X obj 188 448 s p4on;
#X obj 246 448 s p5on;
#X obj 305 448 s p6on;
#X obj 363 448 s p7on;
#X obj 422 448 s p8on;
#X obj 12 259 loadbang;
#X obj 13 509 r p1on;
#X obj 13 530 select 0 1;
#X msg 13 551 OFF;
#X obj 13 572 list prepend /pad1lab;
#X obj 13 593 send toGUI;
#X msg 44 551 ON;
#X obj 149 530 select 0 1;
#X msg 149 551 OFF;
#X obj 149 593 send toGUI;
#X msg 180 551 ON;
#X obj 285 530 select 0 1;
#X msg 285 551 OFF;
#X obj 285 593 send toGUI;
#X msg 316 551 ON;
#X obj 421 530 select 0 1;
#X msg 421 551 OFF;
#X obj 421 593 send toGUI;
#X msg 452 551 ON;
#X obj 13 641 select 0 1;
#X msg 13 662 OFF;
#X obj 13 704 send toGUI;
#X msg 44 662 ON;
#X obj 149 641 select 0 1;
#X msg 149 662 OFF;
#X obj 149 704 send toGUI;
#X msg 180 662 ON;
#X obj 285 641 select 0 1;
#X msg 285 662 OFF;
#X obj 285 704 send toGUI;
#X msg 316 662 ON;
#X obj 421 641 select 0 1;
#X msg 421 662 OFF;
#X obj 421 704 send toGUI;
#X msg 452 662 ON;
#X obj 149 509 r p2on;
#X obj 149 572 list prepend /pad2lab;
#X obj 285 509 r p3on;
#X obj 285 572 list prepend /pad3lab;
#X obj 421 509 r p4on;
#X obj 421 572 list prepend /pad4lab;
#X obj 13 620 r p5on;
#X obj 13 683 list prepend /pad5lab;
#X obj 149 683 list prepend /pad6lab;
#X obj 149 620 r p6on;
#X obj 285 620 r p7on;
#X obj 285 683 list prepend /pad7lab;
#X obj 421 620 r p8on;
#X obj 421 683 list prepend /pad8lab;
#X text 129 46 Receiving data from MMP;
#X text 11 490 Changing labels values when a button is clicked;
#X text 74 252 Saving on/off buttons value in "pXon" variables 1 =
ON | 0 = OFF | X -> pad number, f 64;
#X text 564 455 ===================================================
;
#X text 570 324 | Px ZZZ;
#X text 570 338 | Px -> pad number;
#X text 570 354 | ZZZ -> pad attribute;
#X text 570 370 |;
#X text 570 384 | if;
#X text 570 441 | EXAMPLE: P2VOL -> volume value of pad 2;
#X obj 645 615 dac~;
#X obj 752 617 dac~;
#X obj 862 616 dac~;
#X obj 973 616 dac~;
#X obj 645 512 r p1tgr;
#X obj 645 532 spigot;
#X obj 695 512 r p1on;
#X obj 695 531 == 1;
#X obj 751 532 spigot;
#X obj 802 531 == 1;
#X obj 862 532 spigot;
#X obj 912 531 == 1;
#X obj 973 532 spigot;
#X obj 1023 532 == 1;
#X obj 751 512 r p2tgr;
#X obj 802 512 r p2on;
#X obj 912 512 r p3on;
#X obj 862 512 r p3tgr;
#X obj 973 513 r p4tgr;
#X obj 1023 512 r p4on;
#X obj 641 670 spigot;
#X obj 691 670 == 1;
#X obj 751 670 spigot;
#X obj 802 670 == 1;
#X obj 862 670 spigot;
#X obj 912 670 == 1;
#X obj 973 671 spigot;
#X obj 1023 670 == 1;
#X obj 641 651 r p5tgr;
#X obj 691 650 r p5on;
#X obj 751 651 r p6tgr;
#X obj 802 650 r p6on;
#X obj 862 651 r p7tgr;
#X obj 912 650 r p7on;
#X obj 973 651 r p8tgr;
#X obj 1023 651 r p8on;
#X obj 645 595 *~ 0;
#X obj 752 597 *~ 0;
#X obj 862 596 *~ 0;
#X obj 973 596 *~ 0;
#X obj 697 571 r p1vol;
#X obj 801 574 r p2vol;
#X obj 911 573 r p3vol;
#X obj 1018 573 r p4vol;
#X obj 641 754 dac~;
#X obj 752 754 dac~;
#X obj 862 754 dac~;
#X obj 973 754 dac~;
#X obj 641 734 *~ 0;
#X obj 752 734 *~ 0;
#X obj 862 734 *~ 0;
#X obj 973 734 *~ 0;
#X obj 676 710 r p5vol;
#X obj 789 711 r p6vol;
#X obj 899 710 r p7vol;
#X obj 1015 711 r p8vol;
#X obj 1128 354 loadbang;
#X obj 1128 377 bng 15 250 50 0 empty empty empty 17 7 0 10 -262144
-1 -1;
#X msg 1128 435 read -resize \$1 snare;
#X obj 1128 458 soundfiler;
#N canvas 0 50 450 250 (subpatch) 0;
#X array snare 34563 float 2;
#X coords 0 1 34563 -1 200 140 1;
#X restore 1449 28 graph;
#N canvas 0 50 450 250 (subpatch) 0;
#X array bass 27612 float 2;
#X coords 0 1 27612 -1 200 140 1;
#X restore 1449 185 graph;
#N canvas 0 50 450 250 (subpatch) 0;
#X array hihat 9033 float 2;
#X coords 0 1 9033 -1 200 140 1 0 0;
#X restore 1449 341 graph;
#N canvas 0 50 450 250 (subpatch) 0;
#X array splash 88313 float 2;
#X coords 0 1 88313 -1 200 140 1 0 0;
#X restore 1449 498 graph;
#N canvas 0 50 450 250 (subpatch) 0;
#X array ride 34428 float 2;
#X coords 0 1 34428 -1 200 140 1 0 0;
#X restore 1671 28 graph;
#N canvas 0 50 450 250 (subpatch) 0;
#X array tom1 21942 float 2;
#X coords 0 1 21942 -1 200 140 1 0 0;
#X restore 1671 185 graph;
#N canvas 0 50 450 250 (subpatch) 0;
#X array tom2 50576 float 2;
#X coords 0 1 50576 -1 200 140 1 0 0;
#X restore 1671 341 graph;
#N canvas 0 50 450 250 (subpatch) 0;
#X array surdo 40057 float 2;
#X coords 0 1 40057 -1 200 140 1 0 0;
#X restore 1671 498 graph;
#X obj 1274 458 soundfiler;
#X obj 1128 536 soundfiler;
#X obj 1274 536 soundfiler;
#X obj 1128 612 soundfiler;
#X obj 1274 612 soundfiler;
#X obj 1128 690 soundfiler;
#X obj 1274 690 soundfiler;
#X msg 1128 513 read -resize \$1 bass;
#X msg 1128 667 read -resize \$1 splash;
#X msg 1128 589 read -resize \$1 hihat;
#X msg 1274 435 read -resize \$1 ride;
#X msg 1274 513 read -resize \$1 tom1;
#X msg 1274 589 read -resize \$1 tom2;
#X msg 1274 667 read -resize \$1 surdo;
#X msg 1128 412 open snare.wav \, 1;
#X msg 1274 412 open ride.wav \, 1;
#X msg 1128 490 open bass.wav \, 1;
#X msg 1274 490 open tom1.wav \, 1;
#X msg 1274 566 open tom2.wav \, 1;
#X msg 1128 566 open hihat.wav \, 1;
#X msg 1128 644 open splash.wav \, 1;
#X msg 1274 644 open surdo.wav \, 1;
#X text 1248 365 Loading samples;
#X obj 973 553 tabplay~ splash;
#X obj 645 553 tabplay~ snare;
#X obj 751 553 tabplay~ bass;
#X obj 862 553 tabplay~ hihat;
#X obj 641 691 tabplay~ ride;
#X obj 751 691 tabplay~ tom1;
#X obj 862 691 tabplay~ tom2;
#X obj 973 692 tabplay~ surdo;
#X text 817 487 playing samples;
#X obj 1030 19 notein;
#X text 1150 38 Receiving MIDI;
#X obj 1008 41 bng 15 250 50 0 empty empty empty 17 7 0 10 -262144
-1 -1;
#X obj 1077 243 bng 15 250 50 0 empty empty empty 17 7 0 10 -262144
-1 -1;
#X obj 1127 223 bng 15 250 50 0 empty empty empty 17 7 0 10 -262144
-1 -1;
#X obj 1174 243 bng 15 250 50 0 empty empty empty 17 7 0 10 -262144
-1 -1;
#X obj 1223 220 bng 15 250 50 0 empty empty empty 17 7 0 10 -262144
-1 -1;
#X obj 1271 240 bng 15 250 50 0 empty empty empty 17 7 0 10 -262144
-1 -1;
#X obj 1320 220 bng 15 250 50 0 empty empty empty 17 7 0 10 -262144
-1 -1;
#X obj 1368 240 bng 15 250 50 0 empty empty empty 17 7 0 10 -262144
-1 -1;
#X obj 1077 225 s p2tgr;
#X obj 1127 204 s p3tgr;
#X obj 1174 224 s p4tgr;
#X obj 1223 201 s p5tgr;
#X obj 1271 221 s p6tgr;
#X obj 1320 201 s p7tgr;
#X obj 1368 221 s p8tgr;
#X obj 1030 205 s p1tgr;
#X obj 1030 224 bng 15 250 50 0 empty empty empty 17 7 0 10 -262144
-1 -1;
#X obj 1030 164 route 38 36 8 79 60 71 69 65, f 65;
#X obj 1030 46 stripnote;
#X text 570 398 | ZZZ = VOL -> pad volume (0 ~ 1);
#X text 570 412 | ZZZ = SEN -> pad sensibility (0 ~ 1);
#X text 570 427 | ZZZ = BUT -> on/off button;
#X text 570 310 ===================== GUI VARIABLES ==============
;
#X obj 1081 114 s vel;
#X obj 1081 70 /;
#X floatatom 1081 93 5 0 0 0 - - -;
#X obj 1096 21 loadbang;
#X msg 1096 46 127;
#X obj 682 622 *;
#X obj 682 594 r vel;
#X obj 790 623 *;
#X obj 790 595 r vel;
#X obj 902 621 *;
#X obj 902 593 r vel;
#X obj 1012 620 *;
#X obj 1012 592 r vel;
#X obj 675 760 *;
#X obj 675 732 r vel;
#X obj 788 760 *;
#X obj 788 732 r vel;
#X obj 896 760 *;
#X obj 896 732 r vel;
#X obj 1006 761 *;
#X obj 1006 733 r vel;
#X connect 0 0 1 0;
#X connect 1 0 2 0;
#X connect 2 0 51 0;
#X connect 2 1 52 0;
#X connect 2 2 53 0;
#X connect 2 3 54 0;
#X connect 2 4 55 0;
#X connect 2 5 56 0;
#X connect 2 6 57 0;
#X connect 2 7 58 0;
#X connect 2 8 59 0;
#X connect 2 9 60 0;
#X connect 2 10 61 0;
#X connect 2 11 62 0;
#X connect 2 12 63 0;
#X connect 2 13 64 0;
#X connect 2 14 65 0;
#X connect 2 15 66 0;
#X connect 2 16 67 0;
#X connect 2 17 68 0;
#X connect 2 18 69 0;
#X connect 2 19 70 0;
#X connect 2 20 71 0;
#X connect 2 21 72 0;
#X connect 2 22 73 0;
#X connect 2 23 74 0;
#X connect 3 0 4 0;
#X connect 7 0 5 0;
#X connect 8 0 6 0;
#X connect 18 0 9 0;
#X connect 19 0 10 0;
#X connect 20 0 11 0;
#X connect 21 0 12 0;
#X connect 22 0 13 0;
#X connect 23 0 14 0;
#X connect 24 0 15 0;
#X connect 25 0 16 0;
#X connect 26 0 17 0;
#X connect 39 0 27 0;
#X connect 40 0 28 0;
#X connect 41 0 29 0;
#X connect 42 0 30 0;
#X connect 43 0 31 0;
#X connect 44 0 32 0;
#X connect 45 0 33 0;
#X connect 46 0 34 0;
#X connect 47 0 35 0;
#X connect 48 0 36 0;
#X connect 49 0 37 0;
#X connect 50 0 38 0;
#X connect 77 0 78 0;
#X connect 78 0 79 0;
#X connect 78 0 79 1;
#X connect 79 0 85 0;
#X connect 80 0 81 0;
#X connect 80 0 82 0;
#X connect 81 0 80 1;
#X connect 82 0 83 0;
#X connect 83 0 84 0;
#X connect 84 0 86 0;
#X connect 85 0 80 0;
#X connect 87 0 88 0;
#X connect 87 0 88 1;
#X connect 88 0 94 0;
#X connect 89 0 90 0;
#X connect 89 0 91 0;
#X connect 90 0 89 1;
#X connect 91 0 92 0;
#X connect 92 0 93 0;
#X connect 93 0 150 0;
#X connect 94 0 89 0;
#X connect 95 0 96 0;
#X connect 95 0 96 1;
#X connect 96 0 102 0;
#X connect 97 0 98 0;
#X connect 97 0 99 0;
#X connect 98 0 97 1;
#X connect 99 0 100 0;
#X connect 100 0 101 0;
#X connect 101 0 151 0;
#X connect 102 0 97 0;
#X connect 103 0 104 0;
#X connect 103 0 104 1;
#X connect 104 0 110 0;
#X connect 105 0 106 0;
#X connect 105 0 107 0;
#X connect 106 0 105 1;
#X connect 107 0 108 0;
#X connect 108 0 109 0;
#X connect 109 0 152 0;
#X connect 110 0 105 0;
#X connect 111 0 112 0;
#X connect 111 0 112 1;
#X connect 112 0 118 0;
#X connect 113 0 114 0;
#X connect 113 0 115 0;
#X connect 114 0 113 1;
#X connect 115 0 116 0;
#X connect 116 0 117 0;
#X connect 117 0 153 0;
#X connect 118 0 113 0;
#X connect 119 0 120 0;
#X connect 119 0 120 1;
#X connect 120 0 126 0;
#X connect 121 0 122 0;
#X connect 121 0 123 0;
#X connect 122 0 121 1;
#X connect 123 0 124 0;
#X connect 124 0 125 0;
#X connect 125 0 154 0;
#X connect 126 0 121 0;
#X connect 127 0 128 0;
#X connect 127 0 128 1;
#X connect 128 0 134 0;
#X connect 129 0 130 0;
#X connect 129 0 131 0;
#X connect 130 0 129 1;
#X connect 131 0 132 0;
#X connect 132 0 133 0;
#X connect 133 0 155 0;
#X connect 134 0 129 0;
#X connect 135 0 136 0;
#X connect 135 0 136 1;
#X connect 136 0 142 0;
#X connect 137 0 138 0;
#X connect 137 0 139 0;
#X connect 138 0 137 1;
#X connect 139 0 140 0;
#X connect 140 0 141 0;
#X connect 141 0 156 0;
#X connect 142 0 137 0;
#X connect 143 0 87 0;
#X connect 144 0 95 0;
#X connect 145 0 111 0;
#X connect 146 0 103 0;
#X connect 147 0 119 0;
#X connect 148 0 127 0;
#X connect 149 0 135 0;
#X connect 157 0 80 0;
#X connect 157 0 89 0;
#X connect 157 0 97 0;
#X connect 157 0 105 0;
#X connect 157 0 113 0;
#X connect 157 0 121 0;
#X connect 157 0 129 0;
#X connect 157 0 137 0;
#X connect 158 0 159 0;
#X connect 159 0 160 0;
#X connect 159 1 163 0;
#X connect 160 0 161 0;
#X connect 161 0 162 0;
#X connect 163 0 161 0;
#X connect 164 0 165 0;
#X connect 164 1 167 0;
#X connect 165 0 193 0;
#X connect 167 0 193 0;
#X connect 168 0 169 0;
#X connect 168 1 171 0;
#X connect 169 0 195 0;
#X connect 171 0 195 0;
#X connect 172 0 173 0;
#X connect 172 1 175 0;
#X connect 173 0 197 0;
#X connect 175 0 197 0;
#X connect 176 0 177 0;
#X connect 176 1 179 0;
#X connect 177 0 199 0;
#X connect 179 0 199 0;
#X connect 180 0 181 0;
#X connect 180 1 183 0;
#X connect 181 0 200 0;
#X connect 183 0 200 0;
#X connect 184 0 185 0;
#X connect 184 1 187 0;
#X connect 185 0 203 0;
#X connect 187 0 203 0;
#X connect 188 0 189 0;
#X connect 188 1 191 0;
#X connect 189 0 205 0;
#X connect 191 0 205 0;
#X connect 192 0 164 0;
#X connect 193 0 166 0;
#X connect 194 0 168 0;
#X connect 195 0 170 0;
#X connect 196 0 172 0;
#X connect 197 0 174 0;
#X connect 198 0 176 0;
#X connect 199 0 178 0;
#X connect 200 0 182 0;
#X connect 201 0 180 0;
#X connect 202 0 184 0;
#X connect 203 0 186 0;
#X connect 204 0 188 0;
#X connect 205 0 190 0;
#X connect 220 0 221 0;
#X connect 221 0 308 0;
#X connect 222 0 223 0;
#X connect 223 0 221 1;
#X connect 224 0 309 0;
#X connect 225 0 224 1;
#X connect 226 0 310 0;
#X connect 227 0 226 1;
#X connect 228 0 307 0;
#X connect 229 0 228 1;
#X connect 230 0 224 0;
#X connect 231 0 225 0;
#X connect 232 0 227 0;
#X connect 233 0 226 0;
#X connect 234 0 228 0;
#X connect 235 0 229 0;
#X connect 236 0 311 0;
#X connect 237 0 236 1;
#X connect 238 0 312 0;
#X connect 239 0 238 1;
#X connect 240 0 313 0;
#X connect 241 0 240 1;
#X connect 242 0 314 0;
#X connect 243 0 242 1;
#X connect 244 0 236 0;
#X connect 245 0 237 0;
#X connect 246 0 238 0;
#X connect 247 0 239 0;
#X connect 248 0 240 0;
#X connect 249 0 241 0;
#X connect 250 0 242 0;
#X connect 251 0 243 0;
#X connect 252 0 216 0;
#X connect 252 0 216 1;
#X connect 253 0 217 0;
#X connect 253 0 217 1;
#X connect 254 0 218 0;
#X connect 254 0 218 1;
#X connect 255 0 219 0;
#X connect 255 0 219 1;
#X connect 256 0 346 1;
#X connect 257 0 348 1;
#X connect 258 0 350 1;
#X connect 259 0 352 1;
#X connect 264 0 260 0;
#X connect 264 0 260 1;
#X connect 265 0 261 0;
#X connect 265 0 261 1;
#X connect 266 0 262 0;
#X connect 266 0 262 1;
#X connect 267 0 263 0;
#X connect 267 0 263 1;
#X connect 268 0 354 1;
#X connect 269 0 356 1;
#X connect 270 0 358 1;
#X connect 271 0 360 1;
#X connect 272 0 273 0;
#X connect 273 0 298 0;
#X connect 273 0 299 0;
#X connect 273 0 300 0;
#X connect 273 0 303 0;
#X connect 273 0 304 0;
#X connect 273 0 301 0;
#X connect 273 0 302 0;
#X connect 273 0 305 0;
#X connect 274 0 275 0;
#X connect 291 0 285 0;
#X connect 292 0 289 0;
#X connect 293 0 287 0;
#X connect 294 0 284 0;
#X connect 295 0 286 0;
#X connect 296 0 288 0;
#X connect 297 0 290 0;
#X connect 298 0 274 0;
#X connect 299 0 294 0;
#X connect 300 0 291 0;
#X connect 301 0 295 0;
#X connect 302 0 296 0;
#X connect 303 0 293 0;
#X connect 304 0 292 0;
#X connect 305 0 297 0;
#X connect 307 0 255 0;
#X connect 308 0 252 0;
#X connect 309 0 253 0;
#X connect 310 0 254 0;
#X connect 311 0 264 0;
#X connect 312 0 265 0;
#X connect 313 0 266 0;
#X connect 314 0 267 0;
#X connect 316 0 318 0;
#X connect 316 0 336 0;
#X connect 316 1 336 1;
#X connect 335 0 333 0;
#X connect 335 0 334 0;
#X connect 335 1 326 0;
#X connect 335 1 319 0;
#X connect 335 2 327 0;
#X connect 335 2 320 0;
#X connect 335 3 328 0;
#X connect 335 3 321 0;
#X connect 335 4 329 0;
#X connect 335 4 322 0;
#X connect 335 5 330 0;
#X connect 335 5 323 0;
#X connect 335 6 331 0;
#X connect 335 6 324 0;
#X connect 335 7 332 0;
#X connect 335 7 325 0;
#X connect 336 0 335 0;
#X connect 336 1 342 0;
#X connect 342 0 343 0;
#X connect 343 0 341 0;
#X connect 344 0 345 0;
#X connect 345 0 342 1;
#X connect 346 0 252 1;
#X connect 347 0 346 0;
#X connect 348 0 253 1;
#X connect 349 0 348 0;
#X connect 350 0 254 1;
#X connect 351 0 350 0;
#X connect 352 0 255 1;
#X connect 353 0 352 0;
#X connect 354 0 264 1;
#X connect 355 0 354 0;
#X connect 356 0 265 1;
#X connect 357 0 356 0;
#X connect 358 0 266 1;
#X connect 359 0 358 0;
#X connect 360 0 267 1;
#X connect 361 0 360 0;
